<?xml version="1.0" standalone="no"?><!DOCTYPE svg PUBLIC "-//W3C//DTD SVG 1.1//EN" "http://www.w3.org/Graphics/SVG/1.1/DTD/svg11.dtd"><svg class="icon" width="35px" height="35.00px" viewBox="0 0 1024 1024" version="1.1" xmlns="http://www.w3.org/2000/svg"><path d="M432.758215 56.888889c231.082667 62.577778 188.643556 220.615111 272.384 247.125333S910.624882 401.066667 910.624882 568.888889c0 282.737778-115.484444 170.666667-398.222222 170.666667s-398.222222 112.071111-398.222223-170.666667c0-164.522667 115.598222-225.166222 198.314667-263.168S414.326215 254.520889 444.135993 204.8s15.246222-88.177778-11.377778-147.911111z m79.644445 420.977778c282.737778 0 505.400889 86.698667 512 204.8 0 282.737778-229.262222 284.444444-512 284.444444S0.40266 965.404444 0.40266 682.666667c-11.605333-161.109333 229.262222-204.8 512-204.8z" fill="#D27B5D" /><path d="M1024.40266 682.666667c0 282.737778-229.262222 170.666667-512 170.666666S0.40266 965.404444 0.40266 682.666667c-5.12-71.793778 39.822222-120.149333 116.280888-151.893334 16.497778-135.964444 119.808-190.122667 195.811556-225.052444C395.211548 267.719111 414.326215 254.520889 444.135993 204.8s15.246222-88.177778-11.377778-147.911111c231.082667 62.577778 188.643556 220.615111 272.384 247.125333 81.123556 25.713778 197.176889 92.728889 204.8 248.945778 69.404444 34.702222 111.616 79.303111 114.460445 129.706667z" fill="#ECA61F" /><path d="M330.358215 500.622222a125.155556 125.155556 0 1 1-125.155555 125.155556 125.087289 125.087289 0 0 1 125.155555-125.155556z m364.088889 0a125.155556 125.155556 0 1 1-125.155556 125.155556 125.087289 125.087289 0 0 1 125.155556-125.155556z" fill="#FFFFFF" /><path d="M330.358215 557.511111a68.266667 68.266667 0 1 1-68.266667 68.266667 68.266667 68.266667 0 0 1 68.266667-68.266667z m364.088889 0a68.266667 68.266667 0 1 1-68.266667 68.266667 68.266667 68.266667 0 0 1 68.266667-68.266667z" fill="#4F3F00" /><path d="M398.624882 398.222222m-56.888889 0a56.888889 56.888889 0 1 0 113.777778 0 56.888889 56.888889 0 1 0-113.777778 0Z" fill="#F6E3C7" /><path d="M648.935993 782.563556s-141.312 155.989333-280.803556-1.251556c0 0 150.186667 42.439111 280.803556 1.251556z" fill="#4F3F00" /></svg>