<?xml version="1.0" standalone="no"?><!DOCTYPE svg PUBLIC "-//W3C//DTD SVG 1.1//EN" "http://www.w3.org/Graphics/SVG/1.1/DTD/svg11.dtd"><svg class="icon" width="30px" height="30.00px" viewBox="0 0 1024 1024" version="1.1" xmlns="http://www.w3.org/2000/svg"><path d="M512 512m-512 0a512 512 0 1 0 1024 0 512 512 0 1 0-1024 0Z" fill="#FF5500" /><path d="M366.933333 307.2m38.4 0l8.533334 0q38.4 0 38.4 38.4l0 332.8q0 38.4-38.4 38.4l-8.533334 0q-38.4 0-38.4-38.4l0-332.8q0-38.4 38.4-38.4Z" fill="#FFFFFF" /><path d="M571.733333 307.2m38.4 0l8.533334 0q38.4 0 38.4 38.4l0 332.8q0 38.4-38.4 38.4l-8.533334 0q-38.4 0-38.4-38.4l0-332.8q0-38.4 38.4-38.4Z" fill="#FFFFFF" /></svg>